<mxfile host="65bd71144e" pages="1">
    <diagram id="wrgz4rIC0pxNwm5uEw60" name="Page-1">
        <mxGraphModel dx="1956" dy="790" grid="1" gridSize="10" guides="1" tooltips="1" connect="1" arrows="1" fold="1" page="1" pageScale="1" pageWidth="827" pageHeight="1169" background="none" math="0" shadow="1">
            <root>
                <mxCell id="0"/>
                <mxCell id="1" parent="0"/>
                <mxCell id="60" value="" style="edgeStyle=none;html=1;fontSize=20;strokeWidth=4;curved=1;" edge="1" parent="1" source="40">
                    <mxGeometry relative="1" as="geometry">
                        <mxPoint x="-397" y="560" as="targetPoint"/>
                        <Array as="points">
                            <mxPoint x="-397" y="570"/>
                        </Array>
                    </mxGeometry>
                </mxCell>
                <mxCell id="63" style="edgeStyle=none;html=1;entryX=0.5;entryY=0;entryDx=0;entryDy=0;fontSize=20;strokeWidth=4;curved=1;exitX=0.945;exitY=0.983;exitDx=0;exitDy=0;exitPerimeter=0;" edge="1" parent="1" source="29" target="13">
                    <mxGeometry relative="1" as="geometry"/>
                </mxCell>
                <mxCell id="66" style="edgeStyle=none;html=1;entryX=0.5;entryY=0;entryDx=0;entryDy=0;fontSize=20;strokeWidth=4;curved=1;exitX=0.343;exitY=-0.2;exitDx=0;exitDy=0;exitPerimeter=0;" edge="1" parent="1" source="40" target="11">
                    <mxGeometry relative="1" as="geometry"/>
                </mxCell>
                <mxCell id="42" value="" style="rounded=1;whiteSpace=wrap;html=1;dashed=1;fillColor=none;strokeWidth=4;" vertex="1" parent="1">
                    <mxGeometry x="-627" y="280" width="490" height="270" as="geometry"/>
                </mxCell>
                <mxCell id="4" value="" style="edgeStyle=orthogonalEdgeStyle;rounded=1;orthogonalLoop=1;jettySize=auto;html=1;strokeWidth=3;fontSize=19;fillColor=#d80073;strokeColor=#000000;labelBorderColor=none;fontColor=#66FFFF;shadow=0;curved=1;" parent="1" source="2" target="3" edge="1">
                    <mxGeometry relative="1" as="geometry"/>
                </mxCell>
                <mxCell id="2" value="&lt;font style=&quot;font-size: 19px;&quot;&gt;Publisher&lt;/font&gt;" style="rounded=1;whiteSpace=wrap;html=1;strokeWidth=3;fontSize=19;fillColor=#f5f5f5;strokeColor=#000000;labelBorderColor=none;fontColor=#000000;shadow=0;" parent="1" vertex="1">
                    <mxGeometry x="-477" y="100" width="110" height="60" as="geometry"/>
                </mxCell>
                <mxCell id="6" value="" style="edgeStyle=orthogonalEdgeStyle;rounded=1;orthogonalLoop=1;jettySize=auto;html=1;strokeWidth=3;fontSize=19;fillColor=#d80073;strokeColor=#000000;labelBorderColor=none;fontColor=#66FFFF;shadow=0;curved=1;" parent="1" source="3" target="5" edge="1">
                    <mxGeometry relative="1" as="geometry"/>
                </mxCell>
                <mxCell id="3" value="&lt;font style=&quot;font-size: 19px;&quot;&gt;xlive-edge&lt;/font&gt;" style="rounded=1;whiteSpace=wrap;html=1;strokeWidth=3;fontSize=19;fillColor=#dae8fc;strokeColor=#000000;labelBorderColor=none;shadow=0;fontColor=#000000;" parent="1" vertex="1">
                    <mxGeometry x="-477" y="190" width="110" height="60" as="geometry"/>
                </mxCell>
                <mxCell id="8" value="" style="edgeStyle=orthogonalEdgeStyle;rounded=1;orthogonalLoop=1;jettySize=auto;html=1;strokeWidth=3;fontSize=19;fillColor=#d80073;strokeColor=#000000;labelBorderColor=none;fontColor=#66FFFF;shadow=0;curved=1;" parent="1" source="5" target="7" edge="1">
                    <mxGeometry relative="1" as="geometry"/>
                </mxCell>
                <mxCell id="5" value="&lt;font style=&quot;font-size: 19px;&quot;&gt;xlive-origin&lt;/font&gt;" style="rounded=1;whiteSpace=wrap;html=1;strokeWidth=3;fontSize=19;fillColor=#ffe6cc;strokeColor=#000000;labelBorderColor=none;shadow=0;fontColor=#000000;" parent="1" vertex="1">
                    <mxGeometry x="-477" y="300" width="110" height="60" as="geometry"/>
                </mxCell>
                <mxCell id="7" value="&lt;font style=&quot;font-size: 19px&quot;&gt;xlive-cache&lt;/font&gt;" style="rounded=1;whiteSpace=wrap;html=1;strokeWidth=3;fontSize=19;fillColor=#fff2cc;strokeColor=#000000;labelBorderColor=none;shadow=0;fontColor=#000000;" parent="1" vertex="1">
                    <mxGeometry x="-477" y="410" width="110" height="60" as="geometry"/>
                </mxCell>
                <mxCell id="20" value="" style="edgeStyle=orthogonalEdgeStyle;rounded=1;orthogonalLoop=1;jettySize=auto;html=1;strokeWidth=3;fontSize=19;fillColor=#d80073;strokeColor=#000000;labelBorderColor=none;fontColor=#66FFFF;shadow=0;curved=1;" parent="1" source="13" target="19" edge="1">
                    <mxGeometry relative="1" as="geometry"/>
                </mxCell>
                <mxCell id="13" value="xlive-edge" style="rounded=1;whiteSpace=wrap;html=1;strokeWidth=3;fontSize=19;fillColor=#dae8fc;strokeColor=#000000;labelBorderColor=none;shadow=0;fontColor=#000000;" parent="1" vertex="1">
                    <mxGeometry x="-307" y="573" width="110" height="60" as="geometry"/>
                </mxCell>
                <mxCell id="19" value="&lt;span style=&quot;font-size: 23px&quot;&gt;Player&lt;/span&gt;" style="rounded=1;whiteSpace=wrap;html=1;strokeWidth=3;fontSize=19;fillColor=#d5e8d4;strokeColor=#000000;labelBorderColor=none;shadow=0;fontColor=#191919;" parent="1" vertex="1">
                    <mxGeometry x="-247" y="729" width="110" height="60" as="geometry"/>
                </mxCell>
                <mxCell id="16" value="" style="edgeStyle=orthogonalEdgeStyle;rounded=1;orthogonalLoop=1;jettySize=auto;html=1;entryX=0.5;entryY=0;entryDx=0;entryDy=0;strokeWidth=3;fontSize=19;fillColor=#d80073;strokeColor=#000000;labelBorderColor=none;fontColor=#66FFFF;shadow=0;curved=1;" parent="1" source="11" target="21" edge="1">
                    <mxGeometry relative="1" as="geometry">
                        <mxPoint x="-582" y="779" as="targetPoint"/>
                        <Array as="points"/>
                    </mxGeometry>
                </mxCell>
                <mxCell id="11" value="xlive-cache" style="rounded=1;whiteSpace=wrap;html=1;strokeWidth=3;fontSize=19;fillColor=#fff2cc;strokeColor=#000000;labelBorderColor=none;shadow=0;fontColor=#000000;" parent="1" vertex="1">
                    <mxGeometry x="-627" y="563" width="110" height="60" as="geometry"/>
                </mxCell>
                <mxCell id="18" value="" style="edgeStyle=orthogonalEdgeStyle;rounded=1;orthogonalLoop=1;jettySize=auto;html=1;strokeWidth=3;fontSize=19;fillColor=#d80073;strokeColor=#000000;labelBorderColor=none;fontColor=#66FFFF;shadow=0;curved=1;" parent="1" source="9" target="17" edge="1">
                    <mxGeometry relative="1" as="geometry"/>
                </mxCell>
                <mxCell id="9" value="xlive-edge" style="rounded=1;whiteSpace=wrap;html=1;strokeWidth=3;fontSize=19;fillColor=#dae8fc;strokeColor=#000000;labelBorderColor=none;shadow=0;fontColor=#000000;" parent="1" vertex="1">
                    <mxGeometry x="-457" y="573" width="110" height="60" as="geometry"/>
                </mxCell>
                <mxCell id="17" value="&lt;span style=&quot;font-size: 23px&quot;&gt;Player&lt;/span&gt;" style="rounded=1;whiteSpace=wrap;html=1;strokeWidth=3;fontSize=19;fillColor=#d5e8d4;strokeColor=#000000;labelBorderColor=none;shadow=0;fontColor=#191919;" parent="1" vertex="1">
                    <mxGeometry x="-407" y="729" width="110" height="60" as="geometry"/>
                </mxCell>
                <mxCell id="23" value="" style="edgeStyle=orthogonalEdgeStyle;rounded=1;orthogonalLoop=1;jettySize=auto;html=1;strokeWidth=3;fontSize=19;fillColor=#d80073;strokeColor=#000000;labelBorderColor=none;fontColor=#66FFFF;shadow=0;curved=1;" parent="1" source="21" target="22" edge="1">
                    <mxGeometry relative="1" as="geometry"/>
                </mxCell>
                <mxCell id="21" value="xlive-edge" style="rounded=1;whiteSpace=wrap;html=1;strokeWidth=3;fontSize=19;fillColor=#dae8fc;strokeColor=#000000;labelBorderColor=none;shadow=0;fontColor=#000000;" parent="1" vertex="1">
                    <mxGeometry x="-627" y="669" width="110" height="60" as="geometry"/>
                </mxCell>
                <mxCell id="22" value="&lt;span style=&quot;font-size: 23px&quot;&gt;Player&lt;/span&gt;" style="rounded=1;whiteSpace=wrap;html=1;strokeWidth=3;fontSize=19;fillColor=#d5e8d4;strokeColor=#000000;labelBorderColor=none;shadow=0;fontColor=#191919;" parent="1" vertex="1">
                    <mxGeometry x="-570" y="800" width="110" height="60" as="geometry"/>
                </mxCell>
                <mxCell id="69" style="edgeStyle=none;curved=1;rounded=1;html=1;exitX=0;exitY=0.5;exitDx=0;exitDy=0;fontSize=20;strokeWidth=4;" edge="1" parent="1" source="28">
                    <mxGeometry relative="1" as="geometry">
                        <mxPoint x="-680" y="380" as="targetPoint"/>
                        <Array as="points">
                            <mxPoint x="-690" y="380"/>
                        </Array>
                    </mxGeometry>
                </mxCell>
                <mxCell id="28" value="&lt;font style=&quot;font-size: 19px;&quot;&gt;xlive-origin&lt;/font&gt;" style="rounded=1;whiteSpace=wrap;html=1;strokeWidth=3;fontSize=19;fillColor=#ffe6cc;strokeColor=#000000;labelBorderColor=none;shadow=0;fontColor=#000000;" parent="1" vertex="1">
                    <mxGeometry x="-467" y="310" width="110" height="60" as="geometry"/>
                </mxCell>
                <mxCell id="29" value="&lt;font style=&quot;font-size: 19px;&quot;&gt;xlive-origin&lt;/font&gt;" style="rounded=1;whiteSpace=wrap;html=1;strokeWidth=3;fontSize=19;fillColor=#ffe6cc;strokeColor=#000000;labelBorderColor=none;shadow=0;fontColor=#000000;" parent="1" vertex="1">
                    <mxGeometry x="-457" y="320" width="110" height="60" as="geometry"/>
                </mxCell>
                <mxCell id="70" style="edgeStyle=none;curved=1;rounded=1;html=1;exitX=0;exitY=0.75;exitDx=0;exitDy=0;fontSize=20;strokeWidth=4;entryX=1;entryY=0.75;entryDx=0;entryDy=0;shadow=0;" edge="1" parent="1" source="31" target="67">
                    <mxGeometry relative="1" as="geometry"/>
                </mxCell>
                <mxCell id="31" value="&lt;font style=&quot;font-size: 19px&quot;&gt;xlive-cache&lt;/font&gt;" style="rounded=1;whiteSpace=wrap;html=1;strokeWidth=3;fontSize=19;fillColor=#fff2cc;strokeColor=#000000;labelBorderColor=none;shadow=0;fontColor=#000000;" parent="1" vertex="1">
                    <mxGeometry x="-467" y="420" width="110" height="60" as="geometry"/>
                </mxCell>
                <mxCell id="32" value="&lt;font style=&quot;font-size: 19px&quot;&gt;xlive-cache&lt;/font&gt;" style="rounded=1;whiteSpace=wrap;html=1;strokeWidth=3;fontSize=19;fillColor=#fff2cc;strokeColor=#000000;labelBorderColor=none;shadow=0;fontColor=#000000;" parent="1" vertex="1">
                    <mxGeometry x="-457" y="430" width="110" height="60" as="geometry"/>
                </mxCell>
                <mxCell id="33" value="xlive-cache" style="rounded=1;whiteSpace=wrap;html=1;strokeWidth=3;fontSize=19;fillColor=#fff2cc;strokeColor=#000000;labelBorderColor=none;shadow=0;fontColor=#000000;" parent="1" vertex="1">
                    <mxGeometry x="-617" y="573" width="110" height="60" as="geometry"/>
                </mxCell>
                <mxCell id="68" style="edgeStyle=none;curved=1;rounded=1;html=1;entryX=0.5;entryY=1;entryDx=0;entryDy=0;fontSize=20;strokeWidth=4;" edge="1" parent="1" source="34" target="67">
                    <mxGeometry relative="1" as="geometry"/>
                </mxCell>
                <mxCell id="34" value="xlive-cache" style="rounded=1;whiteSpace=wrap;html=1;strokeWidth=3;fontSize=19;fillColor=#fff2cc;strokeColor=#000000;labelBorderColor=none;shadow=0;fontColor=#000000;" parent="1" vertex="1">
                    <mxGeometry x="-617" y="573" width="110" height="60" as="geometry"/>
                </mxCell>
                <mxCell id="39" value="&lt;font style=&quot;font-size: 17px&quot;&gt;源站集群&lt;/font&gt;" style="text;html=1;resizable=0;autosize=1;align=center;verticalAlign=middle;points=[];fillColor=none;strokeColor=none;rounded=1;dashed=1;" parent="1" vertex="1">
                    <mxGeometry x="-404" y="280" width="80" height="20" as="geometry"/>
                </mxCell>
                <mxCell id="40" value="&lt;font style=&quot;font-size: 17px&quot;&gt;一级缓存集群&lt;/font&gt;" style="text;html=1;resizable=0;autosize=1;align=center;verticalAlign=middle;points=[];fillColor=none;strokeColor=none;rounded=1;dashed=1;" parent="1" vertex="1">
                    <mxGeometry x="-457" y="490" width="120" height="20" as="geometry"/>
                </mxCell>
                <mxCell id="41" value="&lt;font style=&quot;font-size: 17px&quot;&gt;二级缓存集群&lt;/font&gt;" style="text;html=1;resizable=0;autosize=1;align=center;verticalAlign=middle;points=[];fillColor=none;strokeColor=none;rounded=1;dashed=1;" parent="1" vertex="1">
                    <mxGeometry x="-740" y="603" width="120" height="20" as="geometry"/>
                </mxCell>
                <mxCell id="44" value="&lt;font style=&quot;font-size: 20px&quot;&gt;xlive-register&lt;/font&gt;" style="rounded=1;whiteSpace=wrap;html=1;dashed=1;fillColor=#f8cecc;strokeColor=#b85450;" vertex="1" parent="1">
                    <mxGeometry x="-280" y="360" width="127" height="60" as="geometry"/>
                </mxCell>
                <mxCell id="58" value="" style="endArrow=classic;startArrow=classic;html=1;fontSize=20;exitX=1;exitY=0.5;exitDx=0;exitDy=0;entryX=0.5;entryY=1;entryDx=0;entryDy=0;strokeWidth=5;curved=1;" edge="1" parent="1" source="32" target="44">
                    <mxGeometry width="50" height="50" relative="1" as="geometry">
                        <mxPoint x="-317" y="490" as="sourcePoint"/>
                        <mxPoint x="-227" y="500" as="targetPoint"/>
                        <Array as="points">
                            <mxPoint x="-307" y="450"/>
                            <mxPoint x="-277" y="450"/>
                        </Array>
                    </mxGeometry>
                </mxCell>
                <mxCell id="59" value="" style="endArrow=classic;startArrow=classic;html=1;fontSize=20;exitX=1;exitY=0.25;exitDx=0;exitDy=0;entryX=0.5;entryY=0;entryDx=0;entryDy=0;strokeWidth=4;curved=1;" edge="1" parent="1" source="29" target="44">
                    <mxGeometry width="50" height="50" relative="1" as="geometry">
                        <mxPoint x="-317" y="360" as="sourcePoint"/>
                        <mxPoint x="-287" y="330" as="targetPoint"/>
                        <Array as="points">
                            <mxPoint x="-277" y="340"/>
                        </Array>
                    </mxGeometry>
                </mxCell>
                <mxCell id="67" value="xilve-monitor" style="rounded=1;whiteSpace=wrap;html=1;dashed=1;fontSize=20;strokeWidth=4;fillColor=#d5e8d4;strokeColor=#82b366;" vertex="1" parent="1">
                    <mxGeometry x="-807" y="360" width="120" height="60" as="geometry"/>
                </mxCell>
                <mxCell id="71" value="xlive-edge" style="rounded=1;whiteSpace=wrap;html=1;strokeWidth=3;fontSize=19;fillColor=#dae8fc;strokeColor=#000000;labelBorderColor=none;shadow=0;fontColor=#000000;" vertex="1" parent="1">
                    <mxGeometry x="-447" y="583" width="110" height="60" as="geometry"/>
                </mxCell>
                <mxCell id="72" value="xlive-edge" style="rounded=1;whiteSpace=wrap;html=1;strokeWidth=3;fontSize=19;fillColor=#dae8fc;strokeColor=#000000;labelBorderColor=none;shadow=0;fontColor=#000000;" vertex="1" parent="1">
                    <mxGeometry x="-437" y="593" width="110" height="60" as="geometry"/>
                </mxCell>
                <mxCell id="73" value="xlive-edge" style="rounded=1;whiteSpace=wrap;html=1;strokeWidth=3;fontSize=19;fillColor=#dae8fc;strokeColor=#000000;labelBorderColor=none;shadow=0;fontColor=#000000;" vertex="1" parent="1">
                    <mxGeometry x="-297" y="583" width="110" height="60" as="geometry"/>
                </mxCell>
                <mxCell id="74" value="xlive-edge" style="rounded=1;whiteSpace=wrap;html=1;strokeWidth=3;fontSize=19;fillColor=#dae8fc;strokeColor=#000000;labelBorderColor=none;shadow=0;fontColor=#000000;" vertex="1" parent="1">
                    <mxGeometry x="-287" y="593" width="110" height="60" as="geometry"/>
                </mxCell>
                <mxCell id="75" value="xlive-edge" style="rounded=1;whiteSpace=wrap;html=1;strokeWidth=3;fontSize=19;fillColor=#dae8fc;strokeColor=#000000;labelBorderColor=none;shadow=0;fontColor=#000000;" vertex="1" parent="1">
                    <mxGeometry x="-617" y="679" width="110" height="60" as="geometry"/>
                </mxCell>
                <mxCell id="76" value="xlive-edge" style="rounded=1;whiteSpace=wrap;html=1;strokeWidth=3;fontSize=19;fillColor=#dae8fc;strokeColor=#000000;labelBorderColor=none;shadow=0;fontColor=#000000;" vertex="1" parent="1">
                    <mxGeometry x="-600" y="689" width="110" height="60" as="geometry"/>
                </mxCell>
                <mxCell id="77" value="&lt;font style=&quot;font-size: 13px&quot;&gt;边缘节点集群&lt;br&gt;（省略cache层）&lt;/font&gt;" style="text;html=1;resizable=0;autosize=1;align=center;verticalAlign=middle;points=[];fillColor=none;strokeColor=none;rounded=0;dashed=1;fontSize=20;" vertex="1" parent="1">
                    <mxGeometry x="-185" y="583" width="120" height="60" as="geometry"/>
                </mxCell>
                <mxCell id="78" value="&lt;font style=&quot;font-size: 13px&quot;&gt;边缘节点集群&lt;/font&gt;" style="text;html=1;resizable=0;autosize=1;align=center;verticalAlign=middle;points=[];fillColor=none;strokeColor=none;rounded=0;dashed=1;fontSize=20;" vertex="1" parent="1">
                    <mxGeometry x="-680" y="744" width="90" height="30" as="geometry"/>
                </mxCell>
                <mxCell id="79" value="&lt;font style=&quot;font-size: 13px&quot;&gt;边缘节点集群&lt;/font&gt;" style="text;html=1;resizable=0;autosize=1;align=center;verticalAlign=middle;points=[];fillColor=none;strokeColor=none;rounded=0;dashed=1;fontSize=20;" vertex="1" parent="1">
                    <mxGeometry x="-380" y="649" width="90" height="30" as="geometry"/>
                </mxCell>
                <mxCell id="84" value="" style="endArrow=classic;startArrow=classic;html=1;rounded=1;shadow=0;fontSize=13;strokeWidth=4;curved=1;entryX=0.75;entryY=1;entryDx=0;entryDy=0;" edge="1" parent="1" target="44">
                    <mxGeometry width="50" height="50" relative="1" as="geometry">
                        <mxPoint x="-230" y="573" as="sourcePoint"/>
                        <mxPoint x="-220" y="463" as="targetPoint"/>
                        <Array as="points">
                            <mxPoint x="-190" y="500"/>
                        </Array>
                    </mxGeometry>
                </mxCell>
            </root>
        </mxGraphModel>
    </diagram>
</mxfile>